<svg version="1.1" viewBox="0.0 0.0 512.0 512.0" fill="none" stroke="none" stroke-linecap="square" stroke-miterlimit="10" xmlns:xlink="http://www.w3.org/1999/xlink" xmlns="http://www.w3.org/2000/svg"><clipPath id="p.0"><path d="m0 0l512.0 0l0 512.0l-512.0 0l0 -512.0z" clip-rule="nonzero"/></clipPath><g clip-path="url(#p.0)"><path fill="#000000" fill-opacity="0.0" d="m0 0l512.0 0l0 512.0l-512.0 0z" fill-rule="evenodd"/><path fill="#000000" fill-opacity="0.0" d="m141.73189 315.35767c-16.774292 0 -36.19854 -0.48291016 -49.296555 13.269867c-21.333122 22.399536 -35.308918 66.70926 -27.805283 101.18506c10.379036 47.68701 67.63312 64.54779 104.90962 56.3985c28.912521 -6.320801 40.90834 -75.06912 27.805298 -109.477905c-10.773651 -28.291748 -36.582077 -42.26523 -58.142212 -56.3985" fill-rule="evenodd"/><path stroke="#000000" stroke-width="24.0" stroke-linejoin="round" stroke-linecap="butt" d="m141.73189 315.35767c-16.774292 0 -36.19854 -0.48291016 -49.296555 13.269867c-21.333122 22.399536 -35.308918 66.70926 -27.805283 101.18506c10.379036 47.68701 67.63312 64.54779 104.90962 56.3985c28.912521 -6.320801 40.90834 -75.06912 27.805298 -109.477905c-10.773651 -28.291748 -36.582077 -42.26523 -58.142212 -56.3985" fill-rule="evenodd"/><path fill="#000000" fill-opacity="0.0" d="m389.24213 331.29684c-14.4791565 0 -31.982025 -4.0707703 -42.974976 8.296112c-16.590576 18.664093 -25.770142 53.15927 -21.486267 81.280304c6.242981 40.981293 54.299408 59.350464 85.95001 54.737305c32.253967 -4.701111 55.89789 -69.81723 48.03073 -111.1358c-5.9776306 -31.394653 -44.861603 -33.177917 -69.5195 -33.177917" fill-rule="evenodd"/><path stroke="#000000" stroke-width="24.0" stroke-linejoin="round" stroke-linecap="butt" d="m389.24213 331.29684c-14.4791565 0 -31.982025 -4.0707703 -42.974976 8.296112c-16.590576 18.664093 -25.770142 53.15927 -21.486267 81.280304c6.242981 40.981293 54.299408 59.350464 85.95001 54.737305c32.253967 -4.701111 55.89789 -69.81723 48.03073 -111.1358c-5.9776306 -31.394653 -44.861603 -33.177917 -69.5195 -33.177917" fill-rule="evenodd"/><path fill="#000000" fill-opacity="0.0" d="m30.274618 303.0944c113.71668 18.645325 229.235 -2.098816 343.8 1.657898c27.429932 0.8994446 54.72159 6.634918 82.160095 6.634918c8.847321 0 20.28595 8.210114 26.541962 0c2.6810608 -3.5184937 0 -9.951843 0 -14.927734c0 -16.04477 -0.16592407 -32.17096 1.2633057 -48.105682c1.2843933 -14.31987 12.358063 -36.685516 2.5291443 -43.128647c-6.7951965 -4.4544373 -15.156342 1.6611938 -22.752075 1.6611938c-18.959625 0 -37.91925 0 -56.878906 0c-10.532562 0 -22.178009 6.1840515 -31.597717 0c-6.4171753 -4.2128906 -0.6165161 -18.822937 -1.2658081 -28.200897c-2.4976501 -36.075363 -0.022613525 -78.33481 -17.693817 -106.16207c-21.34198 -33.607708 -62.79315 -33.760723 -96.063965 -36.49373c-38.733505 -3.181736 -83.44142 16.071968 -108.69957 54.740593c-12.170837 18.632797 -18.416367 43.802094 -21.488754 68.01044c-1.1847839 9.335358 2.5751648 21.508896 -2.5266037 28.197601c-3.0398636 3.9854279 -8.356361 -2.8835754 -12.6405945 -3.3158112c-23.108803 -2.331421 -46.3425 -1.6579132 -69.519485 -1.6579132c-7.5948677 0 -18.536678 -6.635269 -22.749552 1.6579132c-4.4649506 8.789398 2.5266132 20.953156 2.5266132 31.516708c0 28.1987 0 56.3974 0 84.5961" fill-rule="evenodd"/><path stroke="#000000" stroke-width="24.0" stroke-linejoin="round" stroke-linecap="butt" d="m30.274618 303.0944c113.71668 18.645325 229.235 -2.098816 343.8 1.657898c27.429932 0.8994446 54.72159 6.634918 82.160095 6.634918c8.847321 0 20.28595 8.210114 26.541962 0c2.6810608 -3.5184937 0 -9.951843 0 -14.927734c0 -16.04477 -0.16592407 -32.17096 1.2633057 -48.105682c1.2843933 -14.31987 12.358063 -36.685516 2.5291443 -43.128647c-6.7951965 -4.4544373 -15.156342 1.6611938 -22.752075 1.6611938c-18.959625 0 -37.91925 0 -56.878906 0c-10.532562 0 -22.178009 6.1840515 -31.597717 0c-6.4171753 -4.2128906 -0.6165161 -18.822937 -1.2658081 -28.200897c-2.4976501 -36.075363 -0.022613525 -78.33481 -17.693817 -106.16207c-21.34198 -33.607708 -62.79315 -33.760723 -96.063965 -36.49373c-38.733505 -3.181736 -83.44142 16.071968 -108.69957 54.740593c-12.170837 18.632797 -18.416367 43.802094 -21.488754 68.01044c-1.1847839 9.335358 2.5751648 21.508896 -2.5266037 28.197601c-3.0398636 3.9854279 -8.356361 -2.8835754 -12.6405945 -3.3158112c-23.108803 -2.331421 -46.3425 -1.6579132 -69.519485 -1.6579132c-7.5948677 0 -18.536678 -6.635269 -22.749552 1.6579132c-4.4649506 8.789398 2.5266132 20.953156 2.5266132 31.516708c0 28.1987 0 56.3974 0 84.5961" fill-rule="evenodd"/></g></svg>